<svg xmlns="http://www.w3.org/2000/svg" viewBox="0 0 32 32" id="file"><path fill="#d3d1fb" d="M25 11v16a2 2 0 0 1-2 2H9a2 2 0 0 1-2-2V5a2 2 0 0 1 2-2h8v8Z"></path><path fill="#aaa6fb" d="M25 11h-8V3l8 8z"></path><path fill="none" stroke="#6a5bfb" stroke-linecap="round" stroke-linejoin="round" stroke-width="2" d="M25 11v16a2 2 0 0 1-2 2H9a2 2 0 0 1-2-2V5a2 2 0 0 1 2-2h8v8Z"></path><path fill="none" stroke="#6a5bfb" stroke-linecap="round" stroke-linejoin="round" stroke-width="2" d="M25 11h-8V3l8 8z"></path></svg>